<svg width="553" height="384" viewBox="0 0 553 384" fill="none" xmlns="http://www.w3.org/2000/svg">
<g clip-path="url(#clip0)">
<path d="M524.8 384H17.0259C12.5104 384 8.17976 382.202 4.98678 379.002C1.7938 375.803 0 371.463 0 366.938C184.068 345.5 364.676 345.5 541.826 366.938C541.826 371.463 540.032 375.803 536.839 379.002C533.646 382.202 529.315 384 524.8 384Z" fill="#2F2E41"/>
<path d="M541.826 367.941L0 366.938L62.7957 261.052L63.0962 260.55V27.1897C63.0959 24.3572 63.6525 21.5524 64.734 18.9355C65.8155 16.3185 67.4009 13.9407 69.3995 11.9379C71.3981 9.93498 73.7709 8.34626 76.3822 7.26242C78.9936 6.17858 81.7924 5.62086 84.6189 5.62109H454.202C457.029 5.62086 459.827 6.17859 462.439 7.26243C465.05 8.34627 467.423 9.93499 469.422 11.9379C471.42 13.9407 473.005 16.3185 474.087 18.9355C475.169 21.5524 475.725 24.3572 475.725 27.1897V262.156L541.826 367.941Z" fill="#3F3D56"/>
<path d="M84.1282 20.6758C82.2695 20.6779 80.4875 21.4187 79.1732 22.7358C77.8589 24.0529 77.1196 25.8387 77.1176 27.7014V240.477C77.1197 242.339 77.8591 244.125 79.1733 245.442C80.4876 246.759 82.2696 247.5 84.1282 247.502H457.697C459.556 247.5 461.338 246.759 462.652 245.442C463.967 244.125 464.706 242.339 464.708 240.477V27.7014C464.706 25.8387 463.967 24.053 462.652 22.7359C461.338 21.4189 459.556 20.678 457.697 20.6758H84.1282Z" fill="white"/>
<path d="M86.5833 275.605C86.0089 275.606 85.4468 275.772 84.9632 276.082C84.4795 276.393 84.0945 276.835 83.8536 277.358L64.5043 319.512C64.2936 319.97 64.2015 320.475 64.2363 320.978C64.2712 321.482 64.4319 321.969 64.7037 322.394C64.9755 322.819 65.3497 323.169 65.7918 323.412C66.2338 323.654 66.7296 323.781 67.2335 323.781H474.139C474.651 323.781 475.155 323.65 475.602 323.4C476.05 323.15 476.426 322.789 476.695 322.353C476.964 321.916 477.117 321.418 477.14 320.905C477.163 320.392 477.055 319.882 476.826 319.423L455.794 277.27C455.546 276.769 455.163 276.347 454.688 276.053C454.213 275.759 453.665 275.604 453.107 275.606L86.5833 275.605Z" fill="#2F2E41"/>
<path d="M269.411 17.1628C271.9 17.1628 273.917 15.1407 273.917 12.6463C273.917 10.152 271.9 8.12988 269.411 8.12988C266.921 8.12988 264.904 10.152 264.904 12.6463C264.904 15.1407 266.921 17.1628 269.411 17.1628Z" fill="white"/>
<path d="M229.415 331.811C228.754 331.811 228.113 332.03 227.588 332.433C227.064 332.835 226.687 333.399 226.514 334.038L221.661 352.104C221.541 352.55 221.525 353.018 221.614 353.472C221.704 353.925 221.896 354.352 222.177 354.719C222.457 355.086 222.818 355.383 223.232 355.587C223.645 355.792 224.1 355.898 224.561 355.898H316.866C317.345 355.898 317.817 355.784 318.242 355.564C318.668 355.344 319.035 355.025 319.313 354.634C319.591 354.243 319.771 353.791 319.839 353.316C319.907 352.84 319.861 352.356 319.704 351.902L313.464 333.837C313.259 333.245 312.876 332.732 312.367 332.369C311.858 332.006 311.249 331.811 310.625 331.811L229.415 331.811Z" fill="#2F2E41"/>
<path d="M475.725 257.037V261.052H62.7954L63.1065 260.55V257.037H475.725Z" fill="#2F2E41"/>
<path d="M347.346 58.2686H249.919V60.0519H347.346C352.143 60.0519 356.743 61.9614 360.135 65.3603C363.527 68.7592 365.432 73.3692 365.432 78.176C365.432 82.9828 363.527 87.5928 360.135 90.9917C356.743 94.3907 352.143 96.3002 347.346 96.3002H199.923C195.126 96.3002 190.526 94.3907 187.134 90.9917C183.742 87.5928 181.837 82.9828 181.837 78.176C181.837 73.3692 183.742 68.7592 187.134 65.3603C190.526 61.9614 195.126 60.0519 199.923 60.0519H205.432V58.2686H199.923C194.656 58.2717 189.606 60.3704 185.883 64.1034C182.16 67.8365 180.069 72.8983 180.069 78.176C180.069 83.4538 182.16 88.5155 185.883 92.2486C189.606 95.9816 194.656 98.0804 199.923 98.0835H347.346C349.956 98.085 352.54 97.5712 354.952 96.5714C357.363 95.5717 359.555 94.1056 361.401 92.2568C363.247 90.4081 364.711 88.213 365.71 85.797C366.709 83.3809 367.223 80.7913 367.223 78.176C367.223 75.5607 366.709 72.9711 365.71 70.5551C364.711 68.139 363.247 65.9439 361.401 64.0952C359.555 62.2465 357.363 60.7803 354.952 59.7806C352.54 58.7808 349.956 58.267 347.346 58.2686V58.2686Z" fill="#E6E6E6"/>
<path d="M347.346 119.793H249.919V121.576H347.346C352.141 121.579 356.738 123.49 360.128 126.889C363.517 130.287 365.421 134.896 365.421 139.7C365.421 144.505 363.517 149.114 360.128 152.512C356.738 155.911 352.141 157.822 347.346 157.825H199.923C195.126 157.825 190.526 155.915 187.134 152.516C183.742 149.117 181.837 144.507 181.837 139.7C181.837 134.894 183.742 130.284 187.134 126.885C190.526 123.486 195.126 121.576 199.923 121.576H205.432V119.793H199.923C194.656 119.796 189.606 121.895 185.883 125.628C182.16 129.361 180.069 134.423 180.069 139.7C180.069 144.978 182.16 150.04 185.883 153.773C189.606 157.506 194.656 159.605 199.923 159.608H347.346C349.956 159.609 352.54 159.096 354.952 158.096C357.363 157.096 359.555 155.63 361.401 153.781C363.247 151.933 364.711 149.737 365.71 147.321C366.709 144.905 367.223 142.316 367.223 139.7C367.223 137.085 366.709 134.496 365.71 132.079C364.711 129.663 363.247 127.468 361.401 125.62C359.555 123.771 357.363 122.305 354.952 121.305C352.54 120.305 349.956 119.791 347.346 119.793V119.793Z" fill="#E6E6E6"/>
<path d="M347.346 181.315H249.919V183.099H347.346C352.143 183.099 356.743 185.008 360.135 188.407C363.526 191.806 365.432 196.416 365.432 201.223C365.432 206.03 363.526 210.64 360.135 214.039C356.743 217.438 352.143 219.347 347.346 219.347H199.923C195.126 219.347 190.526 217.438 187.134 214.039C183.742 210.64 181.837 206.03 181.837 201.223C181.837 196.416 183.742 191.806 187.134 188.407C190.526 185.008 195.126 183.099 199.923 183.099H205.432V181.315H199.923C194.654 181.315 189.601 183.413 185.876 187.146C182.15 190.88 180.057 195.943 180.057 201.223C180.057 206.503 182.15 211.566 185.876 215.3C189.601 219.033 194.654 221.13 199.923 221.13H347.346C349.955 221.13 352.538 220.615 354.948 219.615C357.359 218.615 359.548 217.148 361.393 215.3C363.238 213.451 364.701 211.256 365.699 208.841C366.698 206.426 367.211 203.837 367.211 201.223C367.211 198.609 366.698 196.02 365.699 193.605C364.701 191.189 363.238 188.995 361.393 187.146C359.548 185.298 357.359 183.831 354.948 182.831C352.538 181.83 349.955 181.315 347.346 181.315V181.315Z" fill="#E6E6E6"/>
<path d="M216.429 53.5574C215.04 53.58 213.717 54.1485 212.743 55.1403C211.769 56.1321 211.223 57.4677 211.223 58.8591C211.223 60.2505 211.769 61.5862 212.743 62.578C213.717 63.5698 215.04 64.1383 216.429 64.1609H239.638C240.333 64.1723 241.023 64.0465 241.67 63.7906C242.316 63.5347 242.906 63.1538 243.405 62.6696C243.904 62.1853 244.303 61.6073 244.58 60.9685C244.856 60.3296 245.004 59.6424 245.016 58.9462C245.027 58.2499 244.902 57.5583 244.646 56.9107C244.391 56.263 244.011 55.6722 243.528 55.1718C243.044 54.6714 242.468 54.2713 241.83 53.9943C241.193 53.7173 240.507 53.5688 239.812 53.5574C239.754 53.5564 239.696 53.5564 239.638 53.5574H216.429Z" fill="#3F3D56"/>
<path d="M216.429 115.972C215.04 115.995 213.717 116.564 212.743 117.555C211.769 118.547 211.223 119.883 211.223 121.274C211.223 122.666 211.769 124.001 212.743 124.993C213.717 125.985 215.04 126.553 216.429 126.576H239.638C241.042 126.599 242.396 126.063 243.405 125.085C244.413 124.107 244.993 122.767 245.016 121.361C245.039 119.955 244.504 118.597 243.528 117.587C242.552 116.576 241.215 115.996 239.812 115.972C239.754 115.971 239.696 115.971 239.638 115.972H216.429Z" fill="#3F3D56"/>
<path d="M216.429 176.604C215.041 176.627 213.717 177.196 212.743 178.187C211.77 179.179 211.224 180.515 211.224 181.906C211.224 183.297 211.77 184.633 212.743 185.625C213.717 186.616 215.041 187.185 216.429 187.208H239.639C241.042 187.231 242.396 186.694 243.405 185.716C244.413 184.739 244.993 183.399 245.016 181.993C245.039 180.587 244.504 179.229 243.528 178.219C242.552 177.208 241.215 176.627 239.812 176.604C239.754 176.603 239.696 176.603 239.639 176.604H216.429Z" fill="#3F3D56"/>
<path d="M207.223 72.8748C205.835 72.8973 204.511 73.4659 203.537 74.4577C202.563 75.4495 202.018 76.7851 202.018 78.1765C202.018 79.5679 202.563 80.9035 203.537 81.8954C204.511 82.8872 205.835 83.4557 207.223 83.4783H339.872C340.567 83.4897 341.257 83.3639 341.903 83.108C342.55 82.8521 343.139 82.4712 343.639 81.987C344.138 81.5028 344.537 80.9247 344.814 80.2858C345.09 79.647 345.238 78.9598 345.25 78.2636C345.261 77.5673 345.135 76.8757 344.88 76.228C344.625 75.5804 344.245 74.9896 343.761 74.4892C343.278 73.9888 342.701 73.5886 342.064 73.3116C341.426 73.0346 340.741 72.8862 340.046 72.8748C339.988 72.8738 339.93 72.8738 339.872 72.8748H207.223Z" fill="#70D1ED"/>
<path d="M207.223 134.398C205.835 134.421 204.511 134.989 203.537 135.981C202.564 136.973 202.018 138.309 202.018 139.7C202.018 141.091 202.564 142.427 203.537 143.419C204.511 144.41 205.835 144.979 207.223 145.002H339.872C340.567 145.013 341.257 144.887 341.903 144.631C342.55 144.376 343.139 143.995 343.639 143.51C344.138 143.026 344.537 142.448 344.814 141.809C345.09 141.17 345.238 140.483 345.25 139.787C345.261 139.091 345.135 138.399 344.88 137.751C344.625 137.104 344.245 136.513 343.761 136.013C343.278 135.512 342.701 135.112 342.064 134.835C341.426 134.558 340.741 134.41 340.046 134.398C339.988 134.397 339.93 134.397 339.872 134.398H207.223Z" fill="#70D1ED"/>
<path d="M207.223 195.923C205.835 195.945 204.511 196.514 203.537 197.506C202.564 198.497 202.018 199.833 202.018 201.224C202.018 202.616 202.564 203.951 203.537 204.943C204.511 205.935 205.835 206.503 207.223 206.526H339.872C340.567 206.538 341.257 206.412 341.903 206.156C342.55 205.9 343.139 205.519 343.639 205.035C344.138 204.551 344.537 203.973 344.814 203.334C345.09 202.695 345.238 202.008 345.25 201.311C345.261 200.615 345.135 199.923 344.88 199.276C344.625 198.628 344.245 198.037 343.761 197.537C343.278 197.037 342.701 196.636 342.064 196.359C341.426 196.083 340.741 195.934 340.046 195.923C339.988 195.922 339.93 195.922 339.872 195.923H207.223Z" fill="#E6E6E6"/>
<path d="M157.956 88.3763C163.807 88.3763 168.55 83.6228 168.55 77.759C168.55 71.8952 163.807 67.1416 157.956 67.1416C152.104 67.1416 147.361 71.8952 147.361 77.759C147.361 83.6228 152.104 88.3763 157.956 88.3763Z" fill="#FFB800"/>
<path d="M156.973 82.121L153.886 78.1441L155.681 76.745L157.143 78.6279L162.08 73.4053L163.731 74.973L156.973 82.121Z" fill="white"/>
<path d="M157.956 149.9C163.807 149.9 168.55 145.146 168.55 139.282C168.55 133.419 163.807 128.665 157.956 128.665C152.104 128.665 147.361 133.419 147.361 139.282C147.361 145.146 152.104 149.9 157.956 149.9Z" fill="#FFB800"/>
<path d="M156.973 143.644L153.886 139.668L155.681 138.268L157.143 140.151L162.08 134.929L163.731 136.496L156.973 143.644Z" fill="white"/>
<path d="M157.956 211.423C163.807 211.423 168.55 206.67 168.55 200.806C168.55 194.942 163.807 190.188 157.956 190.188C152.104 190.188 147.361 194.942 147.361 200.806C147.361 206.67 152.104 211.423 157.956 211.423Z" fill="#E6E6E6"/>
<path d="M390.18 88.3763C396.032 88.3763 400.775 83.6228 400.775 77.759C400.775 71.8952 396.032 67.1416 390.18 67.1416C384.329 67.1416 379.586 71.8952 379.586 77.759C379.586 83.6228 384.329 88.3763 390.18 88.3763Z" fill="#E6E6E6"/>
<path d="M390.18 149.9C396.032 149.9 400.775 145.146 400.775 139.282C400.775 133.419 396.032 128.665 390.18 128.665C384.329 128.665 379.586 133.419 379.586 139.282C379.586 145.146 384.329 149.9 390.18 149.9Z" fill="#E6E6E6"/>
<path d="M390.18 211.423C396.032 211.423 400.775 206.67 400.775 200.806C400.775 194.942 396.032 190.188 390.18 190.188C384.329 190.188 379.586 194.942 379.586 200.806C379.586 206.67 384.329 211.423 390.18 211.423Z" fill="#E6E6E6"/>
<path d="M156.973 205.168L153.886 201.191L155.681 199.792L157.143 201.675L162.08 196.452L163.731 198.019L156.973 205.168Z" fill="white"/>
<path d="M387.503 74.3477L386.622 75.2314L392.546 81.1684L393.428 80.2847L387.503 74.3477Z" fill="white"/>
<path d="M392.858 74.3482L386.934 80.2852L387.815 81.1689L393.74 75.2319L392.858 74.3482Z" fill="white"/>
<path d="M387.503 135.871L386.622 136.755L392.546 142.692L393.428 141.808L387.503 135.871Z" fill="white"/>
<path d="M392.858 135.872L386.934 141.809L387.815 142.692L393.74 136.755L392.858 135.872Z" fill="white"/>
<path d="M387.503 197.396L386.622 198.279L392.546 204.216L393.428 203.333L387.503 197.396Z" fill="white"/>
<path d="M392.858 197.396L386.934 203.333L387.815 204.217L393.74 198.28L392.858 197.396Z" fill="white"/>
<path d="M159.994 196.553C160.917 195.941 161.696 195.136 162.278 194.193C162.86 193.25 163.232 192.192 163.366 191.091C163.501 189.991 163.396 188.874 163.058 187.818C162.72 186.762 162.158 185.793 161.41 184.976L151.239 173.865L141.47 178.822L148.947 193.622C149.435 194.587 150.121 195.437 150.959 196.118C151.798 196.798 152.771 197.293 153.815 197.57C154.858 197.847 155.948 197.899 157.013 197.724C158.078 197.548 159.094 197.149 159.994 196.553V196.553Z" fill="#FFB8B8"/>
<path d="M28.5166 229.548C29.6156 229.42 30.6738 229.055 31.6183 228.477C32.5627 227.9 33.3709 227.124 33.9871 226.203C34.6033 225.282 35.0129 224.238 35.1875 223.143C35.3622 222.048 35.2978 220.929 34.9988 219.861L30.9326 205.345H19.9825V221.933C19.9825 223.015 20.2109 224.084 20.6526 225.071C21.0943 226.058 21.7393 226.94 22.5453 227.659C23.3513 228.378 24.3 228.918 25.3292 229.244C26.3583 229.57 27.4446 229.673 28.5166 229.548V229.548Z" fill="#FFB8B8"/>
<path d="M91.7665 339.058L112.451 335.807L103.934 326.865H91.7665V339.058Z" fill="#FFB8B8"/>
<path d="M25.2548 339.871L46.7494 345.561C42.7905 337.331 40.3525 330.049 41.8827 325.24L31.7437 324.021L25.2548 339.871Z" fill="#FFB8B8"/>
<path d="M29.7157 326.052L42.2884 328.491L76.7609 217.131L91.361 328.084H104.745L103.528 171.205H51.6161L29.7157 326.052Z" fill="#575A88"/>
<path d="M95.7263 343.993L116.186 337.249C116.729 337.07 117.227 336.776 117.646 336.387C118.065 335.998 118.396 335.523 118.616 334.994C118.835 334.466 118.939 333.896 118.919 333.323C118.899 332.751 118.757 332.19 118.501 331.678V331.678C118.15 330.974 117.6 330.391 116.919 330C116.238 329.61 115.457 329.43 114.674 329.483L110.033 329.797L108.214 328.771C108.023 328.663 107.802 328.617 107.584 328.641C107.365 328.664 107.159 328.755 106.994 328.901C106.83 329.047 106.715 329.241 106.665 329.455C106.615 329.67 106.633 329.895 106.717 330.099L108.394 334.181L91.361 332.961L90.5205 339.699C90.4371 340.368 90.5239 341.047 90.7727 341.674C91.0216 342.3 91.4245 342.854 91.944 343.282C92.4635 343.711 93.0827 344 93.744 344.125C94.4053 344.249 95.0872 344.204 95.7263 343.993V343.993Z" fill="#575A88"/>
<path d="M26.5761 347.093L48.8162 348.539C49.4062 348.577 49.9976 348.487 50.55 348.276C51.1025 348.065 51.6031 347.737 52.0177 347.315C52.4324 346.892 52.7514 346.385 52.9531 345.828C53.1547 345.271 53.2343 344.677 53.1864 344.087C53.1207 343.276 52.8171 342.502 52.314 341.864C51.8108 341.225 51.1305 340.75 50.3586 340.498L45.7822 339.003L44.4316 337.315C44.2893 337.137 44.0952 337.008 43.8764 336.945C43.6575 336.883 43.4247 336.891 43.2103 336.967C42.996 337.043 42.8107 337.185 42.6803 337.372C42.5499 337.559 42.4808 337.781 42.4826 338.009L42.5194 342.577L26.6376 334.813L23.2338 340.956C22.8958 341.566 22.7172 342.252 22.7146 342.95C22.7121 343.647 22.8856 344.334 23.2192 344.947C23.5527 345.559 24.0354 346.077 24.6223 346.453C25.2092 346.828 25.8813 347.048 26.5761 347.093V347.093Z" fill="#575A88"/>
<path d="M73.922 83.4181C82.2094 83.4181 88.9277 76.6855 88.9277 68.3804C88.9277 60.0754 82.2094 53.3428 73.922 53.3428C65.6345 53.3428 58.9163 60.0754 58.9163 68.3804C58.9163 76.6855 65.6345 83.4181 73.922 83.4181Z" fill="#FFB8B8"/>
<path d="M64.1885 96.0173H84.872V76.1025H64.1885C65.8977 82.2529 65.6768 88.9542 64.1885 96.0173Z" fill="#FFB8B8"/>
<path d="M48.7772 173.238L105.556 174.051L111.233 113.938C111.233 110.017 110.008 106.193 107.728 103.005C105.449 99.817 102.231 97.4243 98.5248 96.1631L89.7387 93.1728L84.872 87.4829C78.7275 86.1522 72.0421 86.4748 64.9996 87.8893L59.7273 95.6114L54.0498 97.4272C50.1915 98.6612 46.8381 101.119 44.4952 104.429C42.1523 107.74 40.9468 111.724 41.0605 115.781C45.2852 137.649 48.5702 157.972 48.7772 173.238Z" fill="#70D1ED"/>
<path d="M17.9546 205.345L32.1492 206.971L48.3716 141.537L49.9938 99.2686L49.5149 99.5008C45.7601 101.322 42.4799 103.993 39.9343 107.305C37.3886 110.616 35.6474 114.476 34.8486 118.579L17.9546 205.345Z" fill="#70D1ED"/>
<path d="M142.056 180.96L153.006 175.676L120.888 115.617C116.224 106.895 108.641 100.099 99.4722 96.4238V96.4238L105.556 134.628L142.056 180.96Z" fill="#70D1ED"/>
<path d="M64.6474 81.9146C64.6474 81.9146 79.3618 81.0401 79.6804 78.4895C79.9989 75.939 82.1473 70.1208 84.6924 70.44C87.2375 70.7592 94.2911 62.2565 92.7804 58.8289C91.2698 55.4013 84.1399 42.7819 69.5837 48.5982C55.0276 54.4145 56.6957 69.001 58.2064 72.4286C59.717 75.8562 64.6474 81.9146 64.6474 81.9146Z" fill="#2F2E41"/>
<path d="M424.757 266.234C424.596 266.235 424.439 266.288 424.312 266.386C424.184 266.484 424.092 266.621 424.05 266.777L422.868 271.176C422.839 271.285 422.835 271.399 422.857 271.509C422.879 271.62 422.926 271.724 422.994 271.813C423.062 271.902 423.15 271.975 423.251 272.024C423.352 272.074 423.462 272.1 423.575 272.1H446.052C446.169 272.1 446.284 272.072 446.387 272.019C446.491 271.965 446.58 271.887 446.648 271.792C446.716 271.697 446.76 271.587 446.776 271.471C446.793 271.355 446.781 271.237 446.743 271.127L445.224 266.728C445.174 266.584 445.081 266.459 444.957 266.37C444.833 266.282 444.684 266.234 444.532 266.234H424.757Z" fill="#70D1ED"/>
<path d="M391.937 266.234C391.776 266.235 391.62 266.288 391.492 266.386C391.364 266.484 391.273 266.621 391.231 266.777L390.049 271.176C390.019 271.285 390.016 271.399 390.037 271.509C390.059 271.62 390.106 271.724 390.174 271.813C390.243 271.902 390.331 271.975 390.431 272.024C390.532 272.074 390.643 272.1 390.755 272.1H413.232C413.349 272.1 413.464 272.072 413.568 272.019C413.671 271.965 413.761 271.887 413.828 271.792C413.896 271.697 413.94 271.587 413.957 271.471C413.973 271.355 413.962 271.237 413.924 271.127L412.404 266.728C412.354 266.584 412.261 266.459 412.137 266.37C412.013 266.282 411.865 266.234 411.713 266.234H391.937Z" fill="#70D1ED"/>
</g>
<defs>
<clipPath id="clip0">
<rect width="553" height="384" fill="white"/>
</clipPath>
</defs>
</svg>
