<svg width="409" height="342" viewBox="0 0 409 342" fill="none" xmlns="http://www.w3.org/2000/svg">
<g clip-path="url(#clip0)">
<g opacity="0.7">
<path opacity="0.7" d="M258.433 153.992C258.469 143.204 255.89 132.569 250.918 122.999C248.557 118.505 246.404 115.711 244.729 113.998C244.097 113.327 243.272 112.87 242.368 112.691C241.465 112.513 240.528 112.621 239.689 113.001C239.019 113.238 238.413 113.63 237.921 114.144C235.68 116.468 233.655 119.541 231.887 122.813C226.656 132.606 223.941 143.549 223.987 154.656V161.324H219.716V83.8417C219.716 67.6014 216.087 51.5781 208.978 37.3524C205.61 30.6181 202.537 26.4341 200.172 23.8617C199.599 23.2078 198.893 22.6838 198.102 22.3249C197.311 21.9659 196.452 21.7803 195.583 21.7803C194.715 21.7803 193.856 21.9659 193.065 22.3249C192.273 22.6838 191.568 23.2078 190.995 23.8617C187.794 27.3462 184.907 31.9508 182.383 36.8477C174.907 51.3656 171.11 67.8405 171.11 84.5633V161.324H167.419V154.337C167.465 143.231 164.75 132.287 159.519 122.494C157.751 119.227 155.726 116.154 153.484 113.825C152.839 113.144 151.995 112.687 151.073 112.518C150.152 112.349 149.2 112.478 148.356 112.886L148.511 112.97C147.97 113.21 147.48 113.553 147.07 113.98C145.412 115.693 143.259 118.487 140.881 122.981C135.909 132.551 133.33 143.186 133.366 153.974V269.816H146.539L145.103 279.34V307.813H155.872V279.34L154.435 269.816H167.419V164.321H171.11V269.342H181.631L180.12 279.335V307.813H190.893V279.34L189.381 269.347H203.558L202.047 279.34V307.813H212.82V279.34L211.308 269.347H219.707V164.321H223.978V269.976H227.439V269.816H238.885L237.448 279.34V307.813H248.221V279.34L246.785 269.816H258.433V153.992Z" fill="url(#paint0_linear)"/>
</g>
<path d="M158.015 273.788H147.816L149.638 261.387H156.194L158.015 273.788Z" fill="#535461"/>
<g opacity="0.1">
<path opacity="0.1" d="M149.13 266.31H156.703L156.194 262.843H149.638L149.13 266.31Z" fill="black"/>
</g>
<path d="M245.441 273.788H235.242L237.064 261.387H243.62L245.441 273.788Z" fill="#535461"/>
<g opacity="0.1">
<path opacity="0.1" d="M236.555 266.31H244.128L243.62 262.843H237.064L236.555 266.31Z" fill="black"/>
</g>
<path d="M191.167 273.788H180.964L182.785 261.387H189.346L191.167 273.788Z" fill="#535461"/>
<g opacity="0.1">
<path opacity="0.1" d="M182.277 266.31H189.854L189.346 262.843H182.785L182.277 266.31Z" fill="black"/>
</g>
<path d="M211.927 273.788H201.729L203.55 261.387H210.106L211.927 273.788Z" fill="#535461"/>
<g opacity="0.1">
<path opacity="0.1" d="M203.042 266.31H210.619L210.106 262.843H203.55L203.042 266.31Z" fill="black"/>
</g>
<path d="M230.87 158.866H158.016V161.784H230.87V158.866Z" fill="#535461"/>
<path d="M242.134 112.762C241.749 112.336 241.279 111.996 240.755 111.763C240.231 111.53 239.664 111.41 239.09 111.41C238.517 111.41 237.95 111.53 237.426 111.763C236.901 111.996 236.432 112.336 236.047 112.762C233.925 115.024 232.011 118.017 230.335 121.201C225.377 130.774 222.812 141.409 222.86 152.194V264.516H255.1V151.729C255.141 141.24 252.7 130.891 247.978 121.528C245.741 117.154 243.703 114.431 242.134 112.762Z" fill="#141A29"/>
<path d="M149.682 112.762C150.067 112.336 150.537 111.996 151.061 111.763C151.586 111.53 152.153 111.41 152.726 111.41C153.3 111.41 153.867 111.53 154.391 111.763C154.915 111.996 155.385 112.336 155.77 112.762C157.892 115.024 159.806 118.017 161.481 121.201C166.439 130.774 169.005 141.409 168.957 152.194V264.516H136.708V151.729C136.667 141.24 139.108 130.891 143.829 121.528C146.062 117.154 148.1 114.431 149.682 112.762Z" fill="#141A29"/>
<path d="M136.889 154.125L144.537 154.16V163.609H136.889V154.125Z" fill="#D3D3D3"/>
<path d="M161.296 154.125L168.944 154.16V163.609H161.296V154.125Z" fill="#D3D3D3"/>
<path d="M222.855 154.125L230.508 154.16V163.609H222.855V154.125Z" fill="#D3D3D3"/>
<path d="M247.262 154.125L254.915 154.16V163.609H247.262V154.125Z" fill="#D3D3D3"/>
<g opacity="0.1">
<path opacity="0.1" d="M161.469 121.056C159.797 117.872 157.879 114.879 155.757 112.617C155.157 111.953 154.357 111.505 153.479 111.339C152.601 111.174 151.693 111.301 150.894 111.7C151.355 111.93 151.771 112.241 152.123 112.617C154.245 114.879 156.159 117.872 157.835 121.056C162.793 130.629 165.358 141.264 165.31 152.048V264.362H168.953V152.062C169 141.272 166.432 130.632 161.469 121.056V121.056Z" fill="black"/>
</g>
<g opacity="0.1">
<path opacity="0.1" d="M233.235 121.364C234.906 118.181 236.825 115.188 238.947 112.925C239.344 112.497 239.824 112.154 240.357 111.916C239.569 111.57 238.693 111.482 237.851 111.663C237.01 111.844 236.248 112.286 235.671 112.925C233.549 115.188 231.635 118.181 229.96 121.364C225.002 130.938 222.436 141.573 222.484 152.357V264.671H225.764V152.375C225.712 141.585 228.276 130.943 233.235 121.364V121.364Z" fill="black"/>
</g>
<path d="M158.015 273.787H147.816V301.512H158.015V273.787Z" fill="url(#paint1_linear)"/>
<path d="M191.163 273.787H180.964V301.512H191.163V273.787Z" fill="url(#paint2_linear)"/>
<path d="M211.927 273.787H201.729V301.512H211.927V273.787Z" fill="url(#paint3_linear)"/>
<path d="M245.441 273.787H235.242V301.512H245.441V273.787Z" fill="url(#paint4_linear)"/>
<path d="M199.946 24.6978C199.414 24.0636 198.749 23.5537 197.999 23.2039C197.248 22.8541 196.431 22.6729 195.603 22.6729C194.775 22.6729 193.958 22.8541 193.208 23.2039C192.457 23.5537 191.792 24.0636 191.26 24.6978C188.231 28.0893 185.513 32.5744 183.108 37.3473C176.035 51.4889 172.436 67.5387 172.436 83.8144V264.055H218.452V83.0882C218.452 67.2731 215.017 51.6527 208.284 37.8343C205.097 31.2771 202.188 27.2038 199.946 24.6978Z" fill="#141A29"/>
<path d="M202.268 44.7188H187.984C185.299 44.7188 183.122 46.8993 183.122 49.589V50.8686C183.122 53.5584 185.299 55.7389 187.984 55.7389H202.268C204.954 55.7389 207.131 53.5584 207.131 50.8686V49.589C207.131 46.8993 204.954 44.7188 202.268 44.7188Z" fill="#E8E8E8"/>
<g opacity="0.7">
<path opacity="0.7" d="M302.641 298.485C301.131 289.366 296.245 281.153 288.958 275.481C281.672 269.809 272.518 267.096 263.323 267.882C254.128 268.668 245.566 272.895 239.344 279.722C233.122 286.548 229.697 295.472 229.751 304.714C229.751 304.896 229.751 305.073 229.751 305.254C228.394 305.46 227.05 305.749 225.728 306.118C224.035 299.363 220.286 293.303 215.002 288.777C209.718 284.251 203.159 281.482 196.234 280.854C189.308 280.226 182.36 281.77 176.35 285.272C170.339 288.775 165.565 294.062 162.688 300.402C159.723 299.256 156.608 298.543 153.44 298.286V298.286C152.935 295.412 152.087 292.61 150.916 289.94C150.366 281.512 146.664 273.602 140.548 267.788C134.432 261.973 126.353 258.682 117.921 258.57C109.489 258.459 101.326 261.535 95.0584 267.185C88.7913 272.835 84.8815 280.644 84.1091 289.054C82.3733 292.735 81.2646 296.682 80.8289 300.73C73.1551 303.927 66.9398 309.864 63.3877 317.39C59.8356 324.916 59.1996 333.494 61.603 341.463H330.2C331.6 336.815 331.977 331.918 331.306 327.11C330.634 322.302 328.93 317.697 326.311 313.612C323.691 309.527 320.219 306.059 316.133 303.448C312.046 300.836 307.443 299.143 302.641 298.485V298.485Z" fill="url(#paint5_linear)"/>
</g>
<path d="M120.559 324.697C138.34 324.697 152.755 310.26 152.755 292.451C152.755 274.642 138.34 260.205 120.559 260.205C102.777 260.205 88.3623 274.642 88.3623 292.451C88.3623 310.26 102.777 324.697 120.559 324.697Z" fill="url(#paint6_linear)"/>
<path d="M120.399 339.851C139.87 339.851 155.655 324.042 155.655 304.541C155.655 285.04 139.87 269.231 120.399 269.231C100.928 269.231 85.1436 285.04 85.1436 304.541C85.1436 324.042 100.928 339.851 120.399 339.851Z" fill="url(#paint7_linear)"/>
<path d="M263.676 339.851C283.148 339.851 298.932 324.042 298.932 304.541C298.932 285.04 283.148 269.231 263.676 269.231C244.205 269.231 228.421 285.04 228.421 304.541C228.421 324.042 244.205 339.851 263.676 339.851Z" fill="url(#paint8_linear)"/>
<path d="M261.903 339.851C279.685 339.851 294.1 325.414 294.1 307.605C294.1 289.796 279.685 275.359 261.903 275.359C244.122 275.359 229.707 289.796 229.707 307.605C229.707 325.414 244.122 339.851 261.903 339.851Z" fill="url(#paint9_linear)"/>
<path d="M225.52 313.734C225.526 318.833 224.321 323.86 222.006 328.402C219.691 332.944 216.332 336.87 212.205 339.856H174.439C169.968 336.62 166.403 332.289 164.083 327.278C161.764 322.266 160.768 316.742 161.192 311.234C161.615 305.727 163.444 300.42 166.502 295.824C169.56 291.227 173.746 287.493 178.658 284.981C183.57 282.469 189.044 281.262 194.555 281.476C200.066 281.691 205.43 283.318 210.133 286.204C214.836 289.09 218.72 293.137 221.414 297.957C224.107 302.778 225.52 308.21 225.516 313.734H225.52Z" fill="url(#paint10_linear)"/>
<path d="M265.449 336.951C265.449 337.916 265.407 338.871 265.321 339.815C265.325 339.828 265.325 339.842 265.321 339.855H201.185C201.096 338.899 201.052 337.929 201.052 336.955C201.047 329.239 203.807 321.777 208.83 315.927C213.854 310.077 220.807 306.227 228.426 305.077C230.018 304.837 231.625 304.716 233.235 304.714C234.058 304.714 234.875 304.745 235.684 304.802C241.455 305.244 247.001 307.235 251.738 310.565C256.475 313.895 260.23 318.441 262.607 323.726C262.74 324.018 262.868 324.315 262.987 324.611C264.613 328.521 265.45 332.715 265.449 336.951V336.951Z" fill="url(#paint11_linear)"/>
<path d="M326.301 330.5C326.304 333.668 325.839 336.819 324.921 339.851H263.296C261.806 334.893 261.522 329.649 262.469 324.558C262.522 324.279 262.575 323.996 262.637 323.722C264.188 316.512 268.159 310.053 273.888 305.42C279.617 300.787 286.758 298.259 294.122 298.259C295.134 298.259 296.129 298.303 297.115 298.4C297.557 298.436 297.999 298.489 298.441 298.547C306.158 299.598 313.232 303.415 318.355 309.29C323.477 315.165 326.3 322.7 326.301 330.5V330.5Z" fill="url(#paint12_linear)"/>
<path d="M128.521 339.856C128.627 339.519 128.719 339.183 128.812 338.842C130.278 333.352 130.27 327.571 128.789 322.085C127.308 316.599 124.407 311.602 120.378 307.6C116.35 303.597 111.338 300.731 105.849 299.292C100.36 297.852 94.5882 297.89 89.1183 299.401C87.8375 299.753 86.5808 300.188 85.3562 300.703C77.9826 303.775 72.0107 309.48 68.5982 316.712C65.1856 323.943 64.5756 332.186 66.8863 339.843H128.521V339.856Z" fill="url(#paint13_linear)"/>
<g opacity="0.7">
<path opacity="0.7" d="M314.064 273.536C317.326 273.536 319.97 270.887 319.97 267.62C319.97 264.353 317.326 261.705 314.064 261.705C310.802 261.705 308.158 264.353 308.158 267.62C308.158 270.887 310.802 273.536 314.064 273.536Z" fill="url(#paint14_linear)"/>
</g>
<path d="M314.064 273.101C317.087 273.101 319.537 270.647 319.537 267.62C319.537 264.593 317.087 262.139 314.064 262.139C311.042 262.139 308.591 264.593 308.591 267.62C308.591 270.647 311.042 273.101 314.064 273.101Z" fill="url(#paint15_linear)"/>
<g opacity="0.7">
<path opacity="0.7" d="M341.11 331.146C344.668 331.146 347.552 328.258 347.552 324.695C347.552 321.132 344.668 318.244 341.11 318.244C337.553 318.244 334.669 321.132 334.669 324.695C334.669 328.258 337.553 331.146 341.11 331.146Z" fill="url(#paint16_linear)"/>
</g>
<path d="M341.11 330.824C344.49 330.824 347.229 328.08 347.229 324.696C347.229 321.312 344.49 318.568 341.11 318.568C337.731 318.568 334.992 321.312 334.992 324.696C334.992 328.08 337.731 330.824 341.11 330.824Z" fill="url(#paint17_linear)"/>
<g opacity="0.7">
<path opacity="0.7" d="M65.5024 295.023C69.4113 295.023 72.5801 291.849 72.5801 287.934C72.5801 284.019 69.4113 280.846 65.5024 280.846C61.5936 280.846 58.4248 284.019 58.4248 287.934C58.4248 291.849 61.5936 295.023 65.5024 295.023Z" fill="url(#paint18_linear)"/>
</g>
<path d="M65.5025 294.703C69.2356 294.703 72.2619 291.673 72.2619 287.934C72.2619 284.195 69.2356 281.164 65.5025 281.164C61.7694 281.164 58.7432 284.195 58.7432 287.934C58.7432 291.673 61.7694 294.703 65.5025 294.703Z" fill="url(#paint19_linear)"/>
<g opacity="0.4">
<path opacity="0.4" d="M332.14 8.25471C330.572 6.17846 328.606 4.43559 326.358 3.12761C323.779 1.64338 320.894 0.772383 317.926 0.581823C314.958 0.391263 311.986 0.88624 309.239 2.02855C306.492 3.17087 304.043 4.92998 302.083 7.17016C300.122 9.41033 298.702 12.0717 297.931 14.9488C297.161 17.826 297.06 20.842 297.638 23.7642C298.215 26.6864 299.456 29.4366 301.263 31.8026C303.07 34.1686 305.396 36.0872 308.06 37.4102C310.725 38.7333 313.658 39.4255 316.632 39.4335C317.044 39.4335 317.455 39.4335 317.861 39.3936C321.361 39.1725 324.735 38.0063 327.626 36.0187C330.516 34.0312 332.816 31.2966 334.279 28.1054C335.743 24.9142 336.316 21.3855 335.938 17.8943C335.56 14.403 334.244 11.0795 332.132 8.27685L332.14 8.25471Z" fill="url(#paint20_linear)"/>
</g>
<path opacity="0.2" d="M334.992 19.9651C334.992 24.6382 333.215 29.1358 330.023 32.5434C326.83 35.9509 322.461 38.0124 317.804 38.3084C317.42 38.335 317.03 38.3483 316.641 38.3483C313.828 38.3466 311.052 37.6969 308.529 36.4493C306.006 35.2017 303.803 33.3897 302.09 31.1533C300.378 28.917 299.202 26.3162 298.654 23.5521C298.105 20.788 298.199 17.9345 298.927 15.2124C299.655 12.4902 300.999 9.97229 302.854 7.85325C304.709 5.7342 307.026 4.0708 309.625 2.99165C312.225 1.9125 315.037 1.4465 317.845 1.62969C320.653 1.81288 323.381 2.64034 325.819 4.04811V4.04811C327.945 5.28468 329.804 6.93276 331.287 8.89627V8.89627C333.697 12.0814 334.998 15.9692 334.992 19.9651V19.9651Z" fill="#20212C"/>
<path opacity="0.05" d="M312.123 8.30696C311.175 8.71654 310.26 9.19911 309.387 9.75034C308.803 10.0744 308.303 10.5289 307.923 11.0786C307.738 11.3543 307.636 11.6776 307.63 12.0098C307.624 12.342 307.713 12.669 307.888 12.9515C308.33 13.5625 309.214 13.6599 309.953 13.6997C310.631 13.844 311.336 13.8053 311.994 13.5875C312.653 13.3697 313.242 12.9806 313.701 12.46L315.28 11.0255C315.828 10.5296 316.429 9.84332 316.19 9.14376C316.009 8.60803 315.408 8.34681 314.864 8.25825C313.508 7.99088 312.1 8.23867 310.916 8.95338" fill="#F55F44"/>
<path opacity="0.05" d="M305.532 28.1872C306.064 28.1872 306.495 27.7551 306.495 27.222C306.495 26.689 306.064 26.2568 305.532 26.2568C304.999 26.2568 304.568 26.689 304.568 27.222C304.568 27.7551 304.999 28.1872 305.532 28.1872Z" fill="#F55F44"/>
<path opacity="0.05" d="M325.173 24.6408C327.129 24.6408 328.714 23.053 328.714 21.0943C328.714 19.1357 327.129 17.5479 325.173 17.5479C323.218 17.5479 321.632 19.1357 321.632 21.0943C321.632 23.053 323.218 24.6408 325.173 24.6408Z" fill="#F55F44"/>
<path opacity="0.05" d="M331.292 8.89178C331.278 9.81845 330.998 10.7216 330.487 11.4939C329.975 12.2661 329.253 12.8751 328.406 13.2482C327.559 13.6214 326.623 13.7431 325.709 13.5989C324.794 13.4547 323.941 13.0507 323.249 12.4348C322.558 11.819 322.058 11.0172 321.808 10.1248C321.558 9.23247 321.569 8.28704 321.84 7.40092C322.111 6.5148 322.631 5.72528 323.337 5.1262C324.043 4.52712 324.906 4.14369 325.823 4.02148V4.02148C327.951 5.26455 329.81 6.92029 331.292 8.89178V8.89178Z" fill="#F55F44"/>
<path opacity="0.05" d="M331.645 30.5516C330.067 32.8014 328.003 34.6667 325.607 36.0095C323.211 37.3522 320.544 38.138 317.804 38.3087C317.782 38.0563 317.769 37.7995 317.769 37.5427C317.769 35.9295 318.217 34.3481 319.063 32.9749C319.908 31.6017 321.118 30.4907 322.557 29.7658C323.996 29.0408 325.607 28.7304 327.212 28.8692C328.817 29.0079 330.352 29.5904 331.645 30.5516V30.5516Z" fill="#F55F44"/>
<path opacity="0.25" d="M319.537 155.405C320.782 155.405 321.791 154.394 321.791 153.147C321.791 151.9 320.782 150.889 319.537 150.889C318.292 150.889 317.282 151.9 317.282 153.147C317.282 154.394 318.292 155.405 319.537 155.405Z" fill="#535461"/>
<path opacity="0.25" d="M18.9255 214.733C20.1707 214.733 21.1801 213.722 21.1801 212.475C21.1801 211.228 20.1707 210.217 18.9255 210.217C17.6803 210.217 16.6709 211.228 16.6709 212.475C16.6709 213.722 17.6803 214.733 18.9255 214.733Z" fill="#535461"/>
<path opacity="0.25" d="M406.626 227.573C407.871 227.573 408.88 226.562 408.88 225.315C408.88 224.068 407.871 223.057 406.626 223.057C405.381 223.057 404.371 224.068 404.371 225.315C404.371 226.562 405.381 227.573 406.626 227.573Z" fill="#535461"/>
<path opacity="0.25" d="M127.641 120.577C128.886 120.577 129.895 119.566 129.895 118.319C129.895 117.072 128.886 116.061 127.641 116.061C126.396 116.061 125.386 117.072 125.386 118.319C125.386 119.566 126.396 120.577 127.641 120.577Z" fill="#535461"/>
<path opacity="0.25" d="M120.236 68.6596C121.481 68.6596 122.491 67.6487 122.491 66.4016C122.491 65.1545 121.481 64.1436 120.236 64.1436C118.991 64.1436 117.981 65.1545 117.981 66.4016C117.981 67.6487 118.991 68.6596 120.236 68.6596Z" fill="#535461"/>
<path opacity="0.25" d="M56.4841 171.525C57.7293 171.525 58.7387 170.514 58.7387 169.267C58.7387 168.02 57.7293 167.009 56.4841 167.009C55.2389 167.009 54.2295 168.02 54.2295 169.267C54.2295 170.514 55.2389 171.525 56.4841 171.525Z" fill="#535461"/>
<path opacity="0.25" d="M375.402 171.919H373.395V169.913H372.577V171.919H370.57V172.742H372.577V174.748H373.395V172.742H375.402V171.919Z" fill="#535461"/>
<path opacity="0.25" d="M409 102.407H406.993V100.401H406.175V102.407H404.168V103.231H406.175V105.236H406.993V103.231H409V102.407Z" fill="#535461"/>
<path opacity="0.25" d="M265.931 63.5726H263.924V61.5625H263.106V63.5726H261.099V64.3917H263.106V66.4018H263.924V64.3917H265.931V63.5726Z" fill="#535461"/>
<path opacity="0.25" d="M353.506 160.633H351.499V158.627H350.681V160.633H348.679V161.456H350.681V163.462H351.499V161.456H353.506V160.633Z" fill="#535461"/>
<path opacity="0.25" d="M280.095 227.383H278.092V225.377H277.275V227.383H275.268V228.206H277.275V230.212H278.092V228.206H280.095V227.383Z" fill="#535461"/>
<path opacity="0.25" d="M74.68 89.6902H72.673V87.6846H71.8552V89.6902H69.8481V90.5093H71.8552V92.5194H72.673V90.5093H74.68V89.6902Z" fill="#535461"/>
<path opacity="0.25" d="M4.83189 115.812H2.82487V113.807H2.00703V115.812H0V116.631H2.00703V118.642H2.82487V116.631H4.83189V115.812Z" fill="#535461"/>
<path opacity="0.25" d="M102.367 198.041H100.36V196.031H99.5422V198.041H97.5396V198.86H99.5422V200.871H100.36V198.86H102.367V198.041Z" fill="#535461"/>
<path d="M341.11 330.824C344.49 330.824 347.229 328.08 347.229 324.696C347.229 321.312 344.49 318.568 341.11 318.568C337.731 318.568 334.992 321.312 334.992 324.696C334.992 328.08 337.731 330.824 341.11 330.824Z" fill="url(#paint21_linear)"/>
<g opacity="0.4">
<path opacity="0.4" d="M118.901 154.739C118.154 153.75 117.218 152.919 116.147 152.295C114.919 151.579 113.542 151.157 112.124 151.06C110.706 150.963 109.285 151.194 107.971 151.736C106.657 152.279 105.486 153.117 104.548 154.186C103.609 155.255 102.93 156.526 102.562 157.901C102.194 159.276 102.147 160.717 102.425 162.113C102.703 163.509 103.298 164.822 104.165 165.949C105.032 167.077 106.147 167.99 107.423 168.617C108.698 169.244 110.102 169.567 111.523 169.563C111.717 169.563 111.916 169.563 112.106 169.563C113.772 169.456 115.378 168.9 116.754 167.953C118.129 167.006 119.224 165.704 119.92 164.185C120.617 162.665 120.89 160.986 120.71 159.324C120.531 157.661 119.906 156.079 118.901 154.744V154.739Z" fill="url(#paint22_linear)"/>
</g>
<path opacity="0.2" d="M120.258 160.319C120.258 162.544 119.411 164.687 117.89 166.309C116.369 167.932 114.288 168.914 112.071 169.054C111.889 169.054 111.704 169.054 111.518 169.054C110.178 169.053 108.857 168.743 107.655 168.149C106.454 167.554 105.405 166.691 104.59 165.626C103.775 164.561 103.216 163.322 102.955 162.006C102.694 160.69 102.738 159.331 103.085 158.035C103.432 156.739 104.072 155.54 104.955 154.531C105.838 153.522 106.941 152.73 108.179 152.216C109.417 151.701 110.756 151.479 112.093 151.566C113.43 151.653 114.729 152.047 115.89 152.717V152.717C116.902 153.305 117.787 154.09 118.494 155.023V155.023C119.646 156.547 120.266 158.408 120.258 160.319V160.319Z" fill="#20212C"/>
<path opacity="0.1" d="M109.365 154.766C108.906 154.96 108.462 155.189 108.039 155.452C107.761 155.604 107.522 155.818 107.34 156.077C107.256 156.209 107.211 156.363 107.211 156.519C107.211 156.676 107.256 156.83 107.34 156.962C107.469 157.088 107.623 157.185 107.792 157.247C107.962 157.308 108.142 157.332 108.322 157.316C108.642 157.382 108.974 157.362 109.285 157.259C109.595 157.156 109.873 156.972 110.09 156.728L110.842 156.046C111.102 155.807 111.39 155.483 111.284 155.16C111.224 155.038 111.135 154.933 111.023 154.855C110.912 154.778 110.782 154.73 110.647 154.717C110.001 154.591 109.332 154.709 108.768 155.049" fill="#F55F44"/>
<path opacity="0.1" d="M106.226 164.233C106.48 164.233 106.686 164.027 106.686 163.773C106.686 163.519 106.48 163.312 106.226 163.312C105.972 163.312 105.767 163.519 105.767 163.773C105.767 164.027 105.972 164.233 106.226 164.233Z" fill="#F55F44"/>
<path opacity="0.1" d="M115.581 162.546C116.513 162.546 117.27 161.789 117.27 160.854C117.27 159.92 116.513 159.163 115.581 159.163C114.648 159.163 113.892 159.92 113.892 160.854C113.892 161.789 114.648 162.546 115.581 162.546Z" fill="#F55F44"/>
<path opacity="0.1" d="M118.494 155.063C118.488 155.504 118.356 155.934 118.114 156.302C117.871 156.67 117.528 156.961 117.125 157.139C116.722 157.318 116.277 157.377 115.842 157.309C115.407 157.241 115 157.049 114.671 156.757C114.341 156.464 114.102 156.083 113.983 155.659C113.863 155.234 113.868 154.784 113.996 154.362C114.125 153.94 114.372 153.564 114.707 153.279C115.043 152.993 115.454 152.811 115.89 152.752V152.752C116.902 153.342 117.787 154.128 118.494 155.063V155.063Z" fill="#F55F44"/>
<path opacity="0.1" d="M118.667 165.362C117.915 166.434 116.932 167.322 115.792 167.962C114.651 168.602 113.38 168.977 112.075 169.059C112.075 168.939 112.075 168.815 112.075 168.691C112.073 167.919 112.285 167.162 112.689 166.504C113.093 165.847 113.672 165.315 114.361 164.969C115.05 164.623 115.822 164.477 116.589 164.546C117.357 164.615 118.09 164.898 118.706 165.362H118.667Z" fill="#F55F44"/>
<g opacity="0.1">
<path opacity="0.1" d="M218.204 89.9775H172.67V91.7486H218.204V89.9775Z" fill="black"/>
</g>
</g>
<defs>
<linearGradient id="paint0_linear" x1="195.902" y1="307.813" x2="195.902" y2="21.794" gradientUnits="userSpaceOnUse">
<stop stop-color="#808080" stop-opacity="0.25"/>
<stop offset="0.54" stop-color="#808080" stop-opacity="0.12"/>
<stop offset="1" stop-color="#808080" stop-opacity="0.1"/>
</linearGradient>
<linearGradient id="paint1_linear" x1="152.914" y1="273.787" x2="152.914" y2="301.517" gradientUnits="userSpaceOnUse">
<stop stop-color="#E0E0E0"/>
<stop offset="0.31" stop-color="#FCCC63"/>
<stop offset="0.77" stop-color="#F55F44"/>
</linearGradient>
<linearGradient id="paint2_linear" x1="4473.49" y1="17385.8" x2="4473.49" y2="19122.3" gradientUnits="userSpaceOnUse">
<stop stop-color="#E0E0E0"/>
<stop offset="0.31" stop-color="#FCCC63"/>
<stop offset="0.77" stop-color="#F55F44"/>
</linearGradient>
<linearGradient id="paint3_linear" x1="4973.28" y1="17385.8" x2="4973.28" y2="19122.3" gradientUnits="userSpaceOnUse">
<stop stop-color="#E0E0E0"/>
<stop offset="0.31" stop-color="#FCCC63"/>
<stop offset="0.77" stop-color="#F55F44"/>
</linearGradient>
<linearGradient id="paint4_linear" x1="5779.97" y1="17385.8" x2="5779.97" y2="19122.3" gradientUnits="userSpaceOnUse">
<stop stop-color="#E0E0E0"/>
<stop offset="0.31" stop-color="#FCCC63"/>
<stop offset="0.77" stop-color="#F55F44"/>
</linearGradient>
<linearGradient id="paint5_linear" x1="157656" y1="69480.5" x2="157656" y2="53957.5" gradientUnits="userSpaceOnUse">
<stop stop-color="#808080" stop-opacity="0.25"/>
<stop offset="0.54" stop-color="#808080" stop-opacity="0.12"/>
<stop offset="1" stop-color="#808080" stop-opacity="0.1"/>
</linearGradient>
<linearGradient id="paint6_linear" x1="120.559" y1="260.205" x2="120.559" y2="324.697" gradientUnits="userSpaceOnUse">
<stop stop-color="#F2F2F2"/>
<stop offset="0.31" stop-color="#E6E6E6"/>
<stop offset="0.77" stop-color="#CCCCCC"/>
</linearGradient>
<linearGradient id="paint7_linear" x1="19288.9" y1="43128.8" x2="19288.9" y2="54392.6" gradientUnits="userSpaceOnUse">
<stop stop-color="#F2F2F2"/>
<stop offset="0.31" stop-color="#E6E6E6"/>
<stop offset="0.77" stop-color="#CCCCCC"/>
</linearGradient>
<linearGradient id="paint8_linear" x1="42284.8" y1="43128.8" x2="42284.8" y2="54392.6" gradientUnits="userSpaceOnUse">
<stop stop-color="#F2F2F2"/>
<stop offset="0.31" stop-color="#E6E6E6"/>
<stop offset="0.77" stop-color="#CCCCCC"/>
</linearGradient>
<linearGradient id="paint9_linear" x1="38378.6" y1="40308.5" x2="38378.6" y2="49702.4" gradientUnits="userSpaceOnUse">
<stop stop-color="#F2F2F2"/>
<stop offset="0.31" stop-color="#E6E6E6"/>
<stop offset="0.77" stop-color="#CCCCCC"/>
</linearGradient>
<linearGradient id="paint10_linear" x1="37186.7" y1="41137.4" x2="37186.7" y2="48836.8" gradientUnits="userSpaceOnUse">
<stop stop-color="#F2F2F2"/>
<stop offset="0.31" stop-color="#E6E6E6"/>
<stop offset="0.77" stop-color="#CCCCCC"/>
</linearGradient>
<linearGradient id="paint11_linear" x1="43027.1" y1="26730.3" x2="43027.1" y2="29520.2" gradientUnits="userSpaceOnUse">
<stop stop-color="#F2F2F2"/>
<stop offset="0.31" stop-color="#E6E6E6"/>
<stop offset="0.77" stop-color="#CCCCCC"/>
</linearGradient>
<linearGradient id="paint12_linear" x1="51938.4" y1="30968.9" x2="51938.4" y2="34876.9" gradientUnits="userSpaceOnUse">
<stop stop-color="#F2F2F2"/>
<stop offset="0.31" stop-color="#E6E6E6"/>
<stop offset="0.77" stop-color="#CCCCCC"/>
</linearGradient>
<linearGradient id="paint13_linear" x1="23146.3" y1="30986.7" x2="23146.3" y2="34897" gradientUnits="userSpaceOnUse">
<stop stop-color="#F2F2F2"/>
<stop offset="0.31" stop-color="#E6E6E6"/>
<stop offset="0.77" stop-color="#CCCCCC"/>
</linearGradient>
<linearGradient id="paint14_linear" x1="8699.95" y1="7556.7" x2="8699.95" y2="7240.59" gradientUnits="userSpaceOnUse">
<stop stop-color="#808080" stop-opacity="0.25"/>
<stop offset="0.54" stop-color="#808080" stop-opacity="0.12"/>
<stop offset="1" stop-color="#808080" stop-opacity="0.1"/>
</linearGradient>
<linearGradient id="paint15_linear" x1="8084.82" y1="6739.83" x2="8084.82" y2="7011.27" gradientUnits="userSpaceOnUse">
<stop stop-color="#F2F2F2"/>
<stop offset="0.31" stop-color="#E6E6E6"/>
<stop offset="0.77" stop-color="#CCCCCC"/>
</linearGradient>
<linearGradient id="paint16_linear" x1="10274.6" y1="9952.71" x2="10274.6" y2="9576.88" gradientUnits="userSpaceOnUse">
<stop stop-color="#808080" stop-opacity="0.25"/>
<stop offset="0.54" stop-color="#808080" stop-opacity="0.12"/>
<stop offset="1" stop-color="#808080" stop-opacity="0.1"/>
</linearGradient>
<linearGradient id="paint17_linear" x1="341.111" y1="318.568" x2="341.111" y2="330.824" gradientUnits="userSpaceOnUse">
<stop stop-color="#F2F2F2"/>
<stop offset="0.31" stop-color="#E0E0E0"/>
<stop offset="0.77" stop-color="#B3B3B3"/>
</linearGradient>
<linearGradient id="paint18_linear" x1="2155.81" y1="9710.79" x2="2155.81" y2="9256.85" gradientUnits="userSpaceOnUse">
<stop stop-color="#808080" stop-opacity="0.25"/>
<stop offset="0.54" stop-color="#808080" stop-opacity="0.12"/>
<stop offset="1" stop-color="#808080" stop-opacity="0.1"/>
</linearGradient>
<linearGradient id="paint19_linear" x1="2061.81" y1="8863.27" x2="2061.81" y2="9277.44" gradientUnits="userSpaceOnUse">
<stop stop-color="#F2F2F2"/>
<stop offset="0.31" stop-color="#E6E6E6"/>
<stop offset="0.77" stop-color="#CCCCCC"/>
</linearGradient>
<linearGradient id="paint20_linear" x1="33405" y1="5942.77" x2="33405" y2="2526.54" gradientUnits="userSpaceOnUse">
<stop stop-color="#808080" stop-opacity="0.25"/>
<stop offset="0.54" stop-color="#808080" stop-opacity="0.12"/>
<stop offset="1" stop-color="#808080" stop-opacity="0.1"/>
</linearGradient>
<linearGradient id="paint21_linear" x1="9776.91" y1="9122.15" x2="9776.91" y2="9461.38" gradientUnits="userSpaceOnUse">
<stop stop-color="#F2F2F2"/>
<stop offset="0.31" stop-color="#E6E6E6"/>
<stop offset="0.77" stop-color="#CCCCCC"/>
</linearGradient>
<linearGradient id="paint22_linear" x1="7318.15" y1="8427.76" x2="7318.15" y2="7652.68" gradientUnits="userSpaceOnUse">
<stop stop-color="#808080" stop-opacity="0.25"/>
<stop offset="0.54" stop-color="#808080" stop-opacity="0.12"/>
<stop offset="1" stop-color="#808080" stop-opacity="0.1"/>
</linearGradient>
<clipPath id="clip0">
<rect width="409" height="340.961" fill="white" transform="translate(0 0.519531)"/>
</clipPath>
</defs>
</svg>
